<svg xmlns="http://www.w3.org/2000/svg" viewBox="0 0 24 24"><path fill="#2874F0" d="M12 0C5.373 0 0 5.373 0 12s5.373 12 12 12 12-5.373 12-12S18.627 0 12 0zm5.176 9.873l-4.136 7.15c-.246.425-.79.593-1.25.385l-1.928-.88c-.46-.21-.577-.79-.23-1.168l1.455-1.583H7.81c-.552 0-1-.448-1-1v-1.55c0-.552.448-1 1-1h3.32l-1.077-1.173c-.347-.378-.23-.958.23-1.168l1.928-.88c.46-.21 1.004-.04 1.25.385l4.135 7.15c.294.51.042 1.155-.42 1.332z"/><path fill="#FFE500" d="M16.657 9.537l-.5.865H11.53l.794-.865h4.333z"/></svg>
