<svg xmlns="http://www.w3.org/2000/svg" viewBox="0 0 24 24"><path fill="#0530AD" d="M0 0h24v24H0z" fill-opacity="0"/><path fill="#0530AD" d="M0 18.667v1.866h7.525v-1.866H0zM0 14.933v1.867h7.525v-1.867H0zM0 11.2v1.867h7.525V11.2H0zM0 7.467v1.866h7.525V7.467H0zM0 3.733v1.867h7.525V3.733H0zM10.885 3.733h6.634c.732 0 1.266.191 1.602.573.336.382.504.91.504 1.583v.59h-5.018v-2.746h-3.722v2.746h-1.077V3.733h1.077zm4.514 14.934v1.866h-4.514v-1.866h4.514zm-.792-3.734h-3.722v1.867h5.018v-.59c0-.673-.168-1.201-.504-1.583-.336-.382-.87-.573-1.602-.573h.81zM10.885 11.2h3.722v1.867h-3.722V11.2zm3.722-3.733h-3.722v1.866h3.722V7.467zm6.758-3.734h2.635V5.6h-2.635v-1.867zm0 14.934h2.635v1.866h-2.635v-1.866zm0-3.734h2.635v1.867h-2.635V14.933zm0-3.733h2.635v1.867h-2.635V11.2zm0-3.733h2.635v1.866h-2.635V7.467z"/></svg>